#!OML:ASF E:\Mandelcareful walks\Project 1\Capture day 1\Session 1\Subject1.ASF
:FULLY-SPECIFIED
:DEGREES
169
root -5.72712 14.9774 -2.40073 -163.534 20.8182 168.954
lowerback 23.8279 -0.409369 -5.15045
upperback 6.64527 -0.742856 -4.44216
thorax -5.88939 0.228596 -1.74094
lowerneck -28.1421 3.87998 0.361883
upperneck 10.7538 6.82126 -7.88539
head 8.15414 2.51615 -1.72892
rclavicle 1.40143e-014 -2.68359e-015
rhumerus -8.28196 5.80041 -67.3874
rradius 67.7544
rwrist -11.4057
rhand -16.3393 -22.2411
rfingers 7.12502
rthumb 9.87281 -51.9896
lclavicle 1.40143e-014 -2.68359e-015
lhumerus -10.0133 -19.7336 65.7312
lradius 65.9452
lwrist 23.593
lhand -22.17 -21.9193
lfingers 7.12502
lthumb 4.24457 8.01811
rfemur -55.7737 -23.0003 14.2566
rtibia 68.6534
rfoot -28.9517 -10.5185
rtoes -3.45332
lfemur -52.6398 19.7601 -13.478
ltibia 60.1741
lfoot -5.85221 7.09785
ltoes -18.4944
170
root -5.57557 14.9876 -2.39471 -163.992 21.3837 168.863
lowerback 24.2388 -0.29977 -5.24085
upperback 6.70901 -0.624079 -4.67411
thorax -6.02612 0.306957 -1.98531
lowerneck -28.258 3.91365 0.301737
upperneck 10.7553 6.81851 -7.55643
head 8.15329 2.54133 -1.60788
rclavicle 4.2043e-014 4.57205e-014
rhumerus -7.98928 5.8179 -67.5497
rradius 67.4235
rwrist -11.3779
rhand -17.0517 -22.4001
rfingers 7.12502
rthumb 9.18542 -52.18
lclavicle 4.2043e-014 4.57205e-014
lhumerus -10.4019 -19.7412 65.5635
lradius 65.9619
lwrist 23.4864
lhand -21.8172 -22.5582
lfingers 7.12502
lthumb 4.58526 7.37219
rfemur -55.2752 -22.3592 14.5696
rtibia 68.9002
rfoot -29.5417 -10.7161
rtoes -2.78614
lfemur -54.1696 21.96 -16.6004
ltibia 62.1684
lfoot -7.12004 7.28656
ltoes -19.8105
171
root -5.44551 14.9848 -2.39899 -163.822 21.617 169.082
lowerback 24.071 -0.147978 -5.31975
upperback 6.68002 -0.451032 -4.3874
thorax -5.97067 0.372979 -1.67107
lowerneck -28.3312 3.91123 0.194716
upperneck 10.8573 6.92097 -7.79733
head 8.21359 2.55712 -1.65566
rclavicle -3.6477e-014 3.97569e-015
rhumerus -7.57037 5.86549 -67.1622
rradius 66.9888
rwrist -11.3078
rhand -16.8723 -22.4044
rfingers 7.12502
rthumb 9.35856 -52.1766
lclavicle -3.6477e-014 3.97569e-015
lhumerus -10.8746 -19.2753 66.403
lradius 65.7859
lwrist 22.7689
lhand -21.748 -22.9926
lfingers 7.12502
lthumb 4.65214 6.93634
rfemur -55.3936 -22.4547 15.4821
rtibia 69.1055
rfoot -29.9955 -10.2504
rtoes -2.38614
lfemur -56.4777 23.625 -19.5346
ltibia 63.995
lfoot -8.35255 7.41486
ltoes -21.0248
172
root -5.3516 14.9696 -2.40846 -163.369 21.4632 169.338
lowerback 23.6907 -0.156094 -4.9439
upperback 6.62483 -0.381053 -4.07817
thorax -5.84751 0.378564 -1.5578
lowerneck -28.2816 3.89788 0.168915
upperneck 10.8397 7.01823 -8.25033
head 8.22792 2.56276 -1.7898
rclavicle -9.93923e-016 3.65764e-014
rhumerus -7.12392 5.78279 -66.5987
rradius 66.6244
rwrist -11.1597
rhand -16.6891 -22.5718
rfingers 7.12502
rthumb 9.53534 -52.336
lclavicle -9.93923e-016 3.65764e-014
lhumerus -11.1752 -18.9043 67.2589
lradius 65.6357
lwrist 22.1168
lhand -21.6899 -23.0651
lfingers 7.12502
lthumb 4.70823 6.86261
rfemur -55.9501 -23.0783 16.5535
rtibia 69.3922
rfoot -30.0931 -9.80809
rtoes -3.14325
lfemur -59.259 24.3688 -22.5885
ltibia 65.3718
lfoot -8.94643 8.04156
ltoes -24.9018
173
root -5.21088 14.9959 -2.41515 -163.53 21.9202 169.589
lowerback 23.9906 -0.245735 -4.21033
upperback 6.60454 -0.355231 -4.85946
thorax -6.0398 0.413159 -2.84943
lowerneck -28.3457 4.04392 0.733606
upperneck 10.9357 6.86305 -7.6926
head 8.25043 2.55349 -1.71453
rclavicle 2.36554e-014 1.61016e-014
rhumerus -7.08737 5.32572 -67.8872
rradius 66.3845
rwrist -10.9587
rhand -16.9726 -22.5641
rfingers 7.12502
rthumb 9.26182 -52.3407
lclavicle 2.36554e-014 1.61016e-014
lhumerus -11.3563 -19.4521 66.0157
lradius 65.8524
lwrist 22.3065
lhand -21.3461 -22.9826
lfingers 7.12502
lthumb 5.0402 6.93748
rfemur -55.4051 -22.4219 17.1796
rtibia 69.4449
rfoot -30.4217 -10.0238
rtoes -3.04368
lfemur -60.4963 25.4093 -24.5725
ltibia 66.2856
lfoot -10.222 7.4284
ltoes -22.2459
174
root -5.11648 14.989 -2.42601 -163.249 22.1804 169.681
lowerback 23.6383 0.202127 -5.24518
upperback 6.56648 -0.00240315 -3.96572
thorax -5.8838 0.552598 -1.36909
lowerneck -28.1385 3.99415 0.0597605
upperneck 10.7325 7.17531 -8.24353
head 8.17224 2.64183 -1.74738
rclavicle -1.74931e-014 1.47101e-014
rhumerus -6.45557 6.27336 -66.4467
rradius 66.2922
rwrist -11.344
rhand -17.268 -22.7501
rfingers 7.12502
rthumb 8.97672 -52.5391
lclavicle -1.74931e-014 1.47101e-014
lhumerus -11.8414 -18.5946 67.619
lradius 65.8621
lwrist 22.1358
lhand -20.9799 -22.8902
lfingers 7.12502
lthumb 5.39371 7.0212
rfemur -55.9485 -23.1199 18.17
rtibia 69.5819
rfoot -30.2375 -9.59488
rtoes -3.32617
lfemur -62.0901 24.4589 -26.2519
ltibia 66.8146
lfoot -11.1249 8.03088
ltoes -23.123
175
root -5.05943 14.9998 -2.44396 -162.769 21.7883 169.768
lowerback 23.321 -0.115017 -4.42761
upperback 6.4293 -0.259575 -4.03429
thorax -5.88698 0.407335 -1.83214
lowerneck -28.1065 4.04981 0.147219
upperneck 10.7489 7.25119 -8.40275
head 8.18786 2.66544 -1.80348
rclavicle -9.54166e-015 1.59028e-014
rhumerus -6.14813 6.60612 -66.5214
rradius 66.1468
rwrist -11.3546
rhand -17.3532 -22.9938
rfingers 7.12502
rthumb 8.89453 -52.7863
lclavicle -9.54166e-015 1.59028e-014
lhumerus -12.1611 -18.4469 67.6784
lradius 65.979
lwrist 22.1335
lhand -20.8937 -22.9589
lfingers 7.12502
lthumb 5.47702 6.95035
rfemur -56.4473 -23.9684 19.0438
rtibia 69.5316
rfoot -30.0739 -9.45691
rtoes -3.7503
lfemur -63.7078 22.5627 -27.3807
ltibia 66.9046
lfoot -12.0434 7.63483
ltoes -22.2525
176
root -4.90877 15.0325 -2.45671 -163.153 22.6185 170.579
lowerback 23.9618 0.476766 -4.87145
upperback 6.49748 0.399238 -3.86426
thorax -6.13298 0.73863 -1.59388
lowerneck -28.1703 4.01769 0.274071
upperneck 10.8871 7.19442 -8.50976
head 8.25259 2.62457 -1.86778
rclavicle 1.72943e-014 -7.93151e-014
rhumerus -6.04063 6.61494 -66.7989
rradius 66.0859
rwrist -11.2683
rhand -16.9469 -22.8254
rfingers 7.12502
rthumb 9.28661 -52.6009
lclavicle 1.72943e-014 -7.93151e-014
lhumerus -12.3637 -18.5912 67.6383
lradius 66.0379
lwrist 22.0265
lhand -21.1017 -23.1702
lfingers 7.12502
lthumb 5.27615 6.74409
rfemur -55.0938 -22.7525 19.9092
rtibia 69.3231
rfoot -30.5327 -9.87054
rtoes -3.84889
lfemur -63.8824 23.5791 -27.7128
ltibia 66.647
lfoot -12.3654 5.47814
ltoes -23.423
177
root -4.80128 15.0428 -2.47913 -163.231 22.5835 170.967
lowerback 24.2177 0.581169 -4.62742
upperback 6.49902 0.580883 -3.90929
thorax -6.26214 0.829905 -1.84264
lowerneck -28.0127 4.00545 0.6147
upperneck 10.861 7.071 -8.65717
head 8.23168 2.56895 -1.99209
rclavicle -2.04748e-014 3.71727e-014
rhumerus -6.15537 6.49127 -67.2798
rradius 66.2324
rwrist -11.2805
rhand -16.5273 -22.4869
rfingers 7.12502
rthumb 9.69142 -52.244
lclavicle -2.04748e-014 3.71727e-014
lhumerus -12.4152 -18.8712 67.4461
lradius 66.0512
lwrist 21.8525
lhand -21.0714 -23.2587
lfingers 7.12502
lthumb 5.30542 6.65492
rfemur -54.5765 -22.7843 20.6915
rtibia 69.3154
rfoot -30.8205 -9.99917
rtoes -2.94624
lfemur -64.5817 23.3294 -28.3891
ltibia 66.1947
lfoot -12.3584 3.11279
ltoes -23.4991
178
root -4.72744 15.0422 -2.50543 -162.981 22.317 171.072
lowerback 24.0637 0.437369 -4.31029
upperback 6.41699 0.451615 -3.95942
thorax -6.2766 0.757777 -2.03803
lowerneck -27.6998 4.13311 0.838295
upperneck 10.7092 7.19236 -8.9155
head 8.15818 2.62361 -2.09868
rclavicle 1.25234e-014 9.93923e-017
rhumerus -6.1094 7.14594 -67.5658
rradius 66.4776
rwrist -11.5237
rhand -16.9867 -22.6017
rfingers 7.12502
rthumb 9.24821 -52.3788
lclavicle 1.25234e-014 9.93923e-017
lhumerus -12.4879 -18.7399 67.3121
lradius 65.9872
lwrist 21.7983
lhand -20.7008 -23.4966
lfingers 7.12502
lthumb 5.6632 6.40768
rfemur -54.748 -23.1296 21.3386
rtibia 69.2627
rfoot -30.926 -10.1533
rtoes -1.2888
lfemur -65.54 22.0907 -29.1942
ltibia 65.4363
lfoot -12.3301 1.36127
ltoes -24.516
